<?xml version="1.0" encoding="UTF-8" standalone="no"?>
<!DOCTYPE svg PUBLIC "-//W3C//DTD SVG 1.1//EN"
 "http://www.w3.org/Graphics/SVG/1.1/DTD/svg11.dtd">
<!-- Generated by graphviz version 11.0.0 (20240428.1522)
 -->
<!-- Pages: 1 -->
<svg width="1279pt" height="428pt"
 viewBox="0.00 0.00 1278.50 428.25" xmlns="http://www.w3.org/2000/svg" xmlns:xlink="http://www.w3.org/1999/xlink">
<g id="graph0" class="graph" transform="scale(1 1) rotate(0) translate(4 424.25)">
<polygon fill="white" stroke="none" points="-4,4 -4,-424.25 1274.5,-424.25 1274.5,4 -4,4"/>
<!-- 2425070966576 -->
<g id="node1" class="node">
<title>2425070966576</title>
<polygon fill="lightblue" stroke="black" points="396.25,-200.25 0,-200.25 0,-145 396.25,-145 396.25,-200.25"/>
<text text-anchor="middle" x="198.12" y="-182.95" font-family="Times New Roman,serif" font-size="14.00">(0.000, 0.000, 0.000) &#160;&#160;&#160;&#160;&#160;&#160;&#160;&#160;&#160;&#160;&#160;</text>
<text text-anchor="middle" x="198.12" y="-167.2" font-family="Times New Roman,serif" font-size="14.00">TreeId: 0, Value: 99.10, Probs: 0.00, n_visit: 2, Vdone: True &#160;&#160;&#160;&#160;&#160;&#160;&#160;&#160;&#160;&#160;&#160;</text>
<text text-anchor="middle" x="198.12" y="-151.45" font-family="Times New Roman,serif" font-size="14.00">Type: 4, ActInfo: 0.00, 0.00, 0.00, ActCost: 0</text>
</g>
<!-- 2424827970480 -->
<g id="node2" class="node">
<title>2424827970480</title>
<polygon fill="lightblue" stroke="black" points="835.25,-237.25 432.25,-237.25 432.25,-182 835.25,-182 835.25,-237.25"/>
<text text-anchor="middle" x="633.75" y="-219.95" font-family="Times New Roman,serif" font-size="14.00">(0.100, 0.100, 0.100) &#160;&#160;&#160;&#160;&#160;&#160;&#160;&#160;&#160;&#160;&#160;</text>
<text text-anchor="middle" x="633.75" y="-204.2" font-family="Times New Roman,serif" font-size="14.00">TreeId: 1, Value: 100.10, Probs: 0.00, n_visit: 1, Vdone: True &#160;&#160;&#160;&#160;&#160;&#160;&#160;&#160;&#160;&#160;&#160;</text>
<text text-anchor="middle" x="633.75" y="-188.45" font-family="Times New Roman,serif" font-size="14.00">Type: 4, ActInfo: 0.00, 0.00, 0.00, ActCost: 0</text>
</g>
<!-- 2425070966576&#45;&gt;2424827970480 -->
<g id="edge1" class="edge">
<title>2425070966576&#45;&gt;2424827970480</title>
<path fill="none" stroke="black" d="M396.59,-189.47C404.56,-190.15 412.58,-190.84 420.58,-191.52"/>
<polygon fill="black" stroke="black" points="420.12,-194.99 430.38,-192.36 420.71,-188.02 420.12,-194.99"/>
</g>
<!-- 2424827970384 -->
<g id="node9" class="node">
<title>2424827970384</title>
<polygon fill="lightblue" stroke="black" points="828.5,-164.25 439,-164.25 439,-109 828.5,-109 828.5,-164.25"/>
<text text-anchor="middle" x="633.75" y="-146.95" font-family="Times New Roman,serif" font-size="14.00">(5.000, 5.000, 0.600) &#160;&#160;&#160;&#160;&#160;&#160;&#160;&#160;&#160;&#160;&#160;</text>
<text text-anchor="middle" x="633.75" y="-131.2" font-family="Times New Roman,serif" font-size="14.00">TreeId: 2, Value: 0.00, Probs: 0.00, n_visit: 0, Vdone: True &#160;&#160;&#160;&#160;&#160;&#160;&#160;&#160;&#160;&#160;&#160;</text>
<text text-anchor="middle" x="633.75" y="-115.45" font-family="Times New Roman,serif" font-size="14.00">Type: 4, ActInfo: 0.00, 0.00, 0.00, ActCost: 0</text>
</g>
<!-- 2425070966576&#45;&gt;2424827970384 -->
<g id="edge8" class="edge">
<title>2425070966576&#45;&gt;2424827970384</title>
<path fill="none" stroke="black" d="M396.59,-156.23C406.74,-155.39 416.95,-154.54 427.12,-153.7"/>
<polygon fill="black" stroke="black" points="427.41,-157.18 437.08,-152.87 426.83,-150.21 427.41,-157.18"/>
</g>
<!-- 2425104432592 -->
<g id="node3" class="node">
<title>2425104432592</title>
<polygon fill="lightblue" stroke="black" points="1270.5,-420.25 871.25,-420.25 871.25,-365 1270.5,-365 1270.5,-420.25"/>
<text text-anchor="middle" x="1070.88" y="-402.95" font-family="Times New Roman,serif" font-size="14.00">(0.002, 0.082, 0.255) &#160;&#160;&#160;&#160;&#160;&#160;&#160;&#160;&#160;&#160;&#160;</text>
<text text-anchor="middle" x="1070.88" y="-387.2" font-family="Times New Roman,serif" font-size="14.00">TreeId: 1, Value: 93.66, Probs: 0.05, n_visit: 0, Vdone: False &#160;&#160;&#160;&#160;&#160;&#160;&#160;&#160;&#160;&#160;&#160;</text>
<text text-anchor="middle" x="1070.88" y="-371.45" font-family="Times New Roman,serif" font-size="14.00">Type: 1, ActInfo: &#45;1.00, &#45;1.00, 0.10, ActCost: &#45;2.0</text>
</g>
<!-- 2424827970480&#45;&gt;2425104432592 -->
<g id="edge2" class="edge">
<title>2424827970480&#45;&gt;2425104432592</title>
<path fill="none" stroke="black" d="M670.14,-237.65C714.5,-271.3 794.11,-326.91 871.25,-356.62 875.2,-358.15 879.22,-359.61 883.3,-361"/>
<polygon fill="black" stroke="black" points="882.17,-364.32 892.77,-364.1 884.35,-357.66 882.17,-364.32"/>
</g>
<!-- 2425104432736 -->
<g id="node4" class="node">
<title>2425104432736</title>
<polygon fill="lightblue" stroke="black" points="1270.5,-347.25 871.25,-347.25 871.25,-292 1270.5,-292 1270.5,-347.25"/>
<text text-anchor="middle" x="1070.88" y="-329.95" font-family="Times New Roman,serif" font-size="14.00">(0.000, 0.090, 0.100) &#160;&#160;&#160;&#160;&#160;&#160;&#160;&#160;&#160;&#160;&#160;</text>
<text text-anchor="middle" x="1070.88" y="-314.2" font-family="Times New Roman,serif" font-size="14.00">TreeId: 1, Value: 39.71, Probs: 0.15, n_visit: 0, Vdone: False &#160;&#160;&#160;&#160;&#160;&#160;&#160;&#160;&#160;&#160;&#160;</text>
<text text-anchor="middle" x="1070.88" y="-298.45" font-family="Times New Roman,serif" font-size="14.00">Type: 1, ActInfo: 0.00, &#45;1.00, 0.10, ActCost: &#45;1.0</text>
</g>
<!-- 2424827970480&#45;&gt;2425104432736 -->
<g id="edge3" class="edge">
<title>2424827970480&#45;&gt;2425104432736</title>
<path fill="none" stroke="black" d="M715.86,-237.74C761.19,-252.76 818.93,-270.75 871.25,-283.62 878.88,-285.5 886.7,-287.33 894.62,-289.1"/>
<polygon fill="black" stroke="black" points="893.87,-292.51 904.39,-291.23 895.36,-285.68 893.87,-292.51"/>
</g>
<!-- 2425106333872 -->
<g id="node5" class="node">
<title>2425106333872</title>
<polygon fill="lightblue" stroke="black" points="1270.5,-274.25 871.25,-274.25 871.25,-219 1270.5,-219 1270.5,-274.25"/>
<text text-anchor="middle" x="1070.88" y="-256.95" font-family="Times New Roman,serif" font-size="14.00">(0.000, 0.098, &#45;0.055) &#160;&#160;&#160;&#160;&#160;&#160;&#160;&#160;&#160;&#160;&#160;</text>
<text text-anchor="middle" x="1070.88" y="-241.2" font-family="Times New Roman,serif" font-size="14.00">TreeId: 1, Value: 88.11, Probs: 0.16, n_visit: 0, Vdone: False &#160;&#160;&#160;&#160;&#160;&#160;&#160;&#160;&#160;&#160;&#160;</text>
<text text-anchor="middle" x="1070.88" y="-225.45" font-family="Times New Roman,serif" font-size="14.00">Type: 1, ActInfo: 1.00, &#45;1.00, 0.10, ActCost: &#45;2.0</text>
</g>
<!-- 2424827970480&#45;&gt;2425106333872 -->
<g id="edge4" class="edge">
<title>2424827970480&#45;&gt;2425106333872</title>
<path fill="none" stroke="black" d="M835.44,-226.69C843.46,-227.37 851.52,-228.06 859.57,-228.74"/>
<polygon fill="black" stroke="black" points="859.16,-232.22 869.42,-229.58 859.76,-225.25 859.16,-232.22"/>
</g>
<!-- 2425106333920 -->
<g id="node6" class="node">
<title>2425106333920</title>
<polygon fill="lightblue" stroke="black" points="1270.5,-201.25 871.25,-201.25 871.25,-146 1270.5,-146 1270.5,-201.25"/>
<text text-anchor="middle" x="1070.88" y="-183.95" font-family="Times New Roman,serif" font-size="14.00">(0.200, 0.102, &#45;0.055) &#160;&#160;&#160;&#160;&#160;&#160;&#160;&#160;&#160;&#160;&#160;</text>
<text text-anchor="middle" x="1070.88" y="-168.2" font-family="Times New Roman,serif" font-size="14.00">TreeId: 1, Value: 41.34, Probs: 0.20, n_visit: 0, Vdone: False &#160;&#160;&#160;&#160;&#160;&#160;&#160;&#160;&#160;&#160;&#160;</text>
<text text-anchor="middle" x="1070.88" y="-152.45" font-family="Times New Roman,serif" font-size="14.00">Type: 1, ActInfo: &#45;1.00, 1.00, 0.10, ActCost: &#45;2.0</text>
</g>
<!-- 2424827970480&#45;&gt;2425106333920 -->
<g id="edge5" class="edge">
<title>2424827970480&#45;&gt;2425106333920</title>
<path fill="none" stroke="black" d="M835.44,-193.02C843.46,-192.36 851.52,-191.69 859.57,-191.02"/>
<polygon fill="black" stroke="black" points="859.75,-194.52 869.42,-190.21 859.17,-187.55 859.75,-194.52"/>
</g>
<!-- 2425106333968 -->
<g id="node7" class="node">
<title>2425106333968</title>
<polygon fill="lightblue" stroke="black" points="1270.5,-128.25 871.25,-128.25 871.25,-73 1270.5,-73 1270.5,-128.25"/>
<text text-anchor="middle" x="1070.88" y="-110.95" font-family="Times New Roman,serif" font-size="14.00">(0.200, 0.110, 0.100) &#160;&#160;&#160;&#160;&#160;&#160;&#160;&#160;&#160;&#160;&#160;</text>
<text text-anchor="middle" x="1070.88" y="-95.2" font-family="Times New Roman,serif" font-size="14.00">TreeId: 1, Value: 70.69, Probs: 0.32, n_visit: 0, Vdone: False &#160;&#160;&#160;&#160;&#160;&#160;&#160;&#160;&#160;&#160;&#160;</text>
<text text-anchor="middle" x="1070.88" y="-79.45" font-family="Times New Roman,serif" font-size="14.00">Type: 1, ActInfo: 0.00, 1.00, 0.10, ActCost: &#45;1.0</text>
</g>
<!-- 2424827970480&#45;&gt;2425106333968 -->
<g id="edge6" class="edge">
<title>2424827970480&#45;&gt;2425106333968</title>
<path fill="none" stroke="black" d="M818.34,-181.67C824.13,-179.2 829.78,-176.53 835.25,-173.62 855.51,-162.86 851,-147.41 871.25,-136.62 873.36,-135.5 875.51,-134.41 877.68,-133.35"/>
<polygon fill="black" stroke="black" points="878.98,-136.6 886.63,-129.27 876.08,-130.23 878.98,-136.6"/>
</g>
<!-- 2425106334016 -->
<g id="node8" class="node">
<title>2425106334016</title>
<polygon fill="lightblue" stroke="black" points="1270.5,-55.25 871.25,-55.25 871.25,0 1270.5,0 1270.5,-55.25"/>
<text text-anchor="middle" x="1070.88" y="-37.95" font-family="Times New Roman,serif" font-size="14.00">(0.198, 0.118, 0.255) &#160;&#160;&#160;&#160;&#160;&#160;&#160;&#160;&#160;&#160;&#160;</text>
<text text-anchor="middle" x="1070.88" y="-22.2" font-family="Times New Roman,serif" font-size="14.00">TreeId: 1, Value: 87.72, Probs: 0.71, n_visit: 0, Vdone: False &#160;&#160;&#160;&#160;&#160;&#160;&#160;&#160;&#160;&#160;&#160;</text>
<text text-anchor="middle" x="1070.88" y="-6.45" font-family="Times New Roman,serif" font-size="14.00">Type: 1, ActInfo: 1.00, 1.00, 0.10, ActCost: &#45;2.0</text>
</g>
<!-- 2424827970480&#45;&gt;2425106334016 -->
<g id="edge7" class="edge">
<title>2424827970480&#45;&gt;2425106334016</title>
<path fill="none" stroke="black" d="M824.81,-181.75C828.43,-179.23 831.92,-176.53 835.25,-173.62 874.06,-139.86 832.47,-97.42 871.25,-63.62 871.66,-63.27 872.08,-62.91 872.5,-62.55"/>
<polygon fill="black" stroke="black" points="874.59,-65.36 880.39,-56.49 870.33,-59.81 874.59,-65.36"/>
</g>
</g>
</svg>
